<svg xmlns="http://www.w3.org/2000/svg" viewBox="0 0 32 32" fill="none">
  <rect width="32" height="32" rx="8" fill="#0B1020"/>
  <rect x="1" y="1" width="30" height="30" rx="7" stroke="#2BD9C7" stroke-width="1.5" fill="none" opacity="0.4"/>
  <path d="M16 7C11.5 7 8 8.8 8 11v10c0 2.2 3.5 4 8 4s8-1.8 8-4V11c0-2.2-3.5-4-8-4z" fill="#0099FF" opacity="0.15"/>
  <ellipse cx="16" cy="11" rx="8" ry="4" fill="none" stroke="#0099FF" stroke-width="1.5"/>
  <path d="M8 11v5c0 2.2 3.5 4 8 4s8-1.8 8-4v-5" fill="none" stroke="#0099FF" stroke-width="1.5"/>
  <path d="M8 16v5c0 2.2 3.5 4 8 4s8-1.8 8-4v-5" fill="none" stroke="#2BD9C7" stroke-width="1.5"/>
  <circle cx="13" cy="18.5" r="1" fill="#2BD9C7"/>
  <circle cx="16" cy="19.5" r="1" fill="#2BD9C7"/>
  <circle cx="19" cy="18.5" r="1" fill="#2BD9C7"/>
</svg>
